<svg enable-background="new 0 0 64 64" viewBox="0 0 64 64" xmlns="http://www.w3.org/2000/svg"><g id="Layer_6"><g><path d="m43.062 26.778c.377-.706.653-1.471.801-2.279.45-2.465-.229-4.939-1.862-6.788-.489-.554-.928-1.146-1.309-1.767.824-.746 1.308-1.806 1.308-2.944 0-1.86-1.276-3.428-3-3.874v-7.126c0-.552-.447-1-1-1h-12c-.553 0-1 .448-1 1v8.167c0 2.655-1.05 5.315-2.958 7.497-.016.015-.03.03-.044.046-1.288 1.461-1.998 3.34-1.998 5.29 0 1.362.344 2.645.947 3.769-1.26 1.451-1.947 3.28-1.947 5.231 0 1.941.693 3.772 1.95 5.224-.605 1.126-.95 2.411-.95 3.776 0 1.763.576 3.452 1.637 4.84-.415.639-.637 1.381-.637 2.16 0 2.147 1.7 3.905 3.825 3.996.116.626.175 1.241.175 1.837v8.167c0 .552.447 1 1 1h12c.553 0 1-.448 1-1v-8.167c0-2.674 1.065-5.354 2.999-7.543 1.635-1.85 2.313-4.324 1.863-6.789-.147-.808-.423-1.573-.801-2.279 1.255-1.45 1.939-3.276 1.939-5.222 0-1.947-.683-3.773-1.938-5.222zm-19.603-7.699c.014-.014.027-.029.041-.043 2.257-2.556 3.5-5.706 3.5-8.868v-7.168h10v7c0 .552.447 1 1 1 1.103 0 2 .897 2 2 0 .739-.416 1.415-1.085 1.764-.489.255-.68.858-.425 1.348.542 1.042 1.219 2.026 2.011 2.923 1.226 1.387 1.733 3.248 1.395 5.105-.432 2.364-2.306 4.268-4.662 4.736-1.198.241-2.399.125-3.486-.317 1.394-1.44 2.252-3.401 2.252-5.559h-2c0 3.309-2.691 6-6 6s-6-2.691-6-6c0-1.442.518-2.833 1.459-3.921zm-2.459 12.921c0-1.3.41-2.525 1.164-3.546 1.461 1.562 3.534 2.546 5.836 2.546 1.457 0 2.823-.392 4.001-1.074 1.688.978 3.656 1.303 5.623.913 1.647-.328 3.108-1.186 4.219-2.375.749 1.018 1.157 2.24 1.157 3.536s-.408 2.517-1.157 3.537c-1.111-1.189-2.572-2.048-4.219-2.375-1.962-.39-3.934-.066-5.623.913-1.178-.684-2.544-1.075-4.001-1.075-2.302 0-4.374.983-5.834 2.544-.753-1.022-1.166-2.25-1.166-3.544zm19.5 12.965c-2.257 2.556-3.5 5.706-3.5 8.868v7.167h-10v-7.167c0-1.021-.141-2.08-.419-3.148-.069-.268-.252-.493-.495-.625-.21-.114-.456-.147-.688-.098-.13.025-.264.038-.398.038-1.103 0-2-.897-2-2 0-.548.223-1.062.628-1.447.192-.183.305-.435.312-.7.006-.266-.093-.523-.276-.715-1.073-1.124-1.664-2.593-1.664-4.138 0-3.309 2.691-6 6-6s6 2.691 6 6h2c0-2.158-.859-4.119-2.253-5.56 1.087-.442 2.288-.556 3.486-.317 2.356.469 4.23 2.373 4.662 4.737.339 1.857-.169 3.718-1.395 5.105z"/><path d="m28 28v-2c-1.654 0-3-1.346-3-3h-2c0 2.757 2.243 5 5 5z"/><path d="m23 41h2c0-1.654 1.346-3 3-3v-2c-2.757 0-5 2.243-5 5z"/><path d="m15.5 19.379h2v4.243h-2z" transform="matrix(.707 -.707 .707 .707 -10.37 17.965)"/><path d="m14.379 41.5h4.243v2h-4.243z" transform="matrix(.707 -.707 .707 .707 -25.219 24.115)"/><path d="m14 25.764h2v4.472h-2z" transform="matrix(.447 -.894 .894 .447 -16.752 28.894)"/><path d="m12.764 35h4.472v2h-4.472z" transform="matrix(.894 -.447 .447 .894 -14.516 10.509)"/><path d="m45.379 20.5h4.243v2h-4.243z" transform="matrix(.707 -.707 .707 .707 -1.29 39.885)"/><path d="m46.5 40.379h2v4.243h-2z" transform="matrix(.707 -.707 .707 .707 -16.14 46.036)"/><path d="m46.764 27h4.472v2h-4.472z" transform="matrix(.894 -.447 .447 .894 -7.349 24.87)"/><path d="m48 33.764h2v4.472h-2z" transform="matrix(.447 -.894 .894 .447 -5.113 63.727)"/></g></g><g/></svg>